<?xml version="1.0" standalone="no"?>
<!DOCTYPE svg PUBLIC "-//W3C//DTD SVG 20010904//EN"
 "http://www.w3.org/TR/2001/REC-SVG-20010904/DTD/svg10.dtd">
<svg version="1.0" xmlns="http://www.w3.org/2000/svg"
 width="394.000000pt" height="386.000000pt" viewBox="0 0 394.000000 386.000000"
 preserveAspectRatio="xMidYMid meet">

<g transform="translate(0.000000,386.000000) scale(0.100000,-0.100000)"
fill="#000000" stroke="none">
<path d="M1380 3840 c-448 -85 -912 -287 -1277 -558 l-103 -76 0 -44 c0 -34 3
-42 13 -35 6 6 38 31 70 57 317 254 826 492 1202 562 72 13 144 28 160 33 25
9 260 41 294 41 6 0 11 -38 13 -97 l3 -98 61 -3 62 -3 4 -37 c4 -29 -1 -44
-22 -72 -15 -19 -62 -102 -105 -185 -42 -82 -83 -157 -90 -165 -7 -8 -30 -49
-50 -90 -21 -41 -54 -104 -75 -140 -20 -36 -69 -126 -107 -200 -66 -125 -97
-184 -281 -527 -38 -71 -95 -177 -127 -238 -32 -60 -79 -148 -105 -195 -26
-47 -66 -122 -89 -167 l-41 -83 108 -107 c60 -60 132 -139 161 -178 77 -104
211 -390 211 -450 0 -13 -22 -15 -134 -15 l-134 0 -26 -31 c-35 -41 -35 -97
-2 -136 l24 -28 156 -3 156 -3 2 -202 3 -202 80 -3 c136 -5 125 -24 125 208
l0 200 145 0 145 0 2 -202 3 -203 63 0 c34 1 222 2 417 3 l355 2 0 200 0 200
128 0 c70 0 144 5 165 11 75 20 96 109 39 160 -32 29 -33 29 -162 29 -72 0
-130 4 -130 8 0 45 87 256 148 357 59 99 157 219 247 302 47 43 85 81 85 84 0
7 -99 194 -330 624 -62 116 -169 316 -237 445 -69 129 -160 300 -203 380 -43
80 -126 237 -185 348 -60 112 -114 206 -122 209 -8 3 -13 21 -13 49 l0 43 68
3 67 3 3 97 3 98 47 -6 c321 -39 464 -71 729 -165 304 -107 623 -280 853 -464
93 -74 90 -73 90 -23 -1 43 -1 43 -98 115 -347 256 -751 441 -1177 540 -131
31 -172 36 -322 40 l-173 5 0 -96 0 -96 -185 0 -185 0 0 95 0 95 -162 -1
c-111 -1 -193 -7 -258 -19z m758 -792 c27 -51 80 -149 117 -218 37 -69 138
-258 225 -420 86 -162 223 -418 304 -568 129 -241 146 -276 134 -290 -8 -10
-46 -53 -85 -97 -154 -175 -271 -401 -333 -643 l-11 -42 -501 2 -501 3 -23 80
c-66 236 -196 473 -348 633 l-70 73 37 72 c43 86 132 253 231 437 40 74 95
176 121 225 75 141 115 214 157 293 48 87 146 276 225 430 32 61 60 112 63
112 3 0 6 -342 8 -761 l2 -760 -31 -38 c-68 -85 -54 -189 35 -255 39 -30 143
-30 182 0 47 35 67 70 72 127 5 58 -9 97 -47 131 -21 19 -21 19 -21 793 0 425
2 773 4 773 3 0 27 -42 54 -92z"/>
</g>
</svg>
